<?xml version="1.0" encoding="UTF-8"?>
<svg id="svg44" xmlns="http://www.w3.org/2000/svg" width="120.05" height="118.28" xmlns:svg="http://www.w3.org/2000/svg" xmlns:sodipodi="http://sodipodi.sourceforge.net/DTD/sodipodi-0.dtd" xmlns:inkscape="http://www.inkscape.org/namespaces/inkscape" version="1.1" viewBox="0 0 120.05 118.28">
  <!-- Generator: Adobe Illustrator 29.5.1, SVG Export Plug-In . SVG Version: 2.1.0 Build 141)  -->
  <defs>
    <style>
      .st0 {
        stroke-width: 5.2px;
      }

      .st0, .st1 {
        fill: #fff;
        stroke: #fff;
      }

      .st2 {
        fill: #545558;
      }

      .st3 {
        fill: #00a4ee;
      }

      .st1 {
        fill-opacity: 1;
        stroke-width: 4.8px;
      }

      .st4 {
        fill: #cc392c;
      }
    </style>
  </defs>
  <sodipodi:namedview id="namedview46" bordercolor="#666666" borderopacity="1.0" inkscape:current-layer="text693" inkscape:cx="37.904521" inkscape:cy="87.98749" inkscape:deskcolor="#d1d1d1" inkscape:pagecheckerboard="0" inkscape:pageopacity="0.0" inkscape:pageshadow="2" inkscape:showpageshadow="2" inkscape:window-height="1205" inkscape:window-maximized="0" inkscape:window-width="1691" inkscape:window-x="0" inkscape:window-y="25" inkscape:zoom="6.9384864" pagecolor="#ffffff" showgrid="false"/>
  <g id="g1091">
    <path id="path4" class="st0" d="M60.03,2.6c-1.16,0-2.31.2-3.31.69h0C39.25,12.09,22.24,21.67,5.31,31.37c-.83.48-1.48,1.17-1.95,1.95-.47.78-.76,1.67-.76,2.59,0,.21.02.42.05.62.54,3.27,1.07,6.53,3.03,19.04,2.45,16.17,3.39,23.11,4.18,30.07h0c.11.98.53,1.88,1.1,2.69.58.81,1.31,1.52,2.19,1.98,14.89,7.87,29.49,16.25,44.1,24.68.85.48,1.82.68,2.78.68.96,0,1.93-.2,2.78-.68,14.6-8.43,29.22-16.81,44.1-24.68h0c.88-.47,1.6-1.18,2.18-1.98.57-.81.99-1.72,1.1-2.69.81-7.05,1.76-14.08,2.79-21.1l2.33-15.14c.69-4.29,1.39-8.58,2.1-12.87h0c.03-.21.05-.42.05-.63,0-.92-.29-1.8-.76-2.59-.47-.78-1.12-1.48-1.95-1.95-16.93-9.69-33.94-19.27-51.4-28.07h0c-1.12-.44-2.3-.69-3.31-.7Z"/>
    <path id="path6" class="st1" d="M52.04,45.9c-1.36.03-2.03.05-3.39.08-1.32,4.08-1.96,6.13-3.22,10.22-.12.32-.18.42-.47.43-.13,0-.2,0-.34.01.04,1.12.06,1.68.1,2.79.82-.03,1.23-.04,2.04-.07.87-.03,1.22-.3,1.46-1.12.2-.69.31-1.04.51-1.73,1.49-.04,2.23-.06,3.71-.09.24.68.35,1.02.59,1.71.28.81.64,1.07,1.51,1.05.82-.01,1.22-.02,2.04-.03-.01-1.12-.02-1.68-.03-2.8-.14,0-.2,0-.34,0-.28,0-.36-.09-.49-.4-1.45-4.03-2.18-6.05-3.68-10.07h0ZM79.24,46.07c-.04,1.08-.05,1.62-.09,2.7.28,0,.41.01.69.02.27,0,.4.14.39.42-.12,3.54-.18,5.31-.3,8.85-.03.95.34,1.37,1.25,1.41,1.14.04,1.7.07,2.84.11.05-1.08.07-1.62.11-2.7-.27-.01-.41-.02-.68-.03-.27-.01-.39-.15-.38-.43.14-3.54.21-5.31.36-8.85.04-.95-.35-1.38-1.28-1.41-1.17-.04-1.75-.06-2.91-.1h0ZM105.35,47.57c-.09,1.04-.13,1.56-.21,2.6,1.05.09,1.57.13,2.62.22.09-1.04.14-1.56.22-2.6-1.06-.09-1.58-.14-2.63-.22h0ZM9.12,48.51c-2.32.24-3.47.36-5.79.62.13,1.11.19,1.66.31,2.78.54-.06.81-.09,1.35-.15.34,3.08.51,4.62.85,7.69-.53.06-.8.09-1.33.15.13,1.11.19,1.67.31,2.78,2.26-.26,3.38-.38,5.64-.61-.11-1.11-.17-1.67-.28-2.78-.53.06-.8.08-1.34.14-.32-3.08-.48-4.62-.8-7.7.54-.06.81-.08,1.35-.14-.11-1.11-.17-1.67-.28-2.78h0ZM14.08,49.17c-1.22.11-1.83.17-3.04.29.1,1.03.15,1.54.25,2.58-.51.05-.77.08-1.28.13.1,1,.15,1.5.25,2.51.47-.05.71-.07,1.19-.12.14,1.41.21,2.11.35,3.52.16,1.62,1,2.44,1.87,2.85.94.45,2,.43,2.75.36.34-.03.6-.07.83-.13-.1-1.11-.15-1.67-.25-2.79-.16.02-.24.03-.41.05-1.09.1-1.68-.26-1.75-1.08-.11-1.24-.17-1.86-.29-3.1.78-.07,1.16-.11,1.94-.18-.09-1-.13-1.51-.22-2.51-.78.07-1.17.1-1.95.18-.09-1.03-.14-1.55-.24-2.58h0ZM63.88,49.31c-1.32,0-2.32.56-2.95,1.66h-.04c0-.09.01-.13.02-.22v-.13c0-.67-.45-1.08-1.3-1.08-1.12,0-1.67.01-2.79.02.01,1.08.02,1.62.03,2.7.27,0,.41,0,.69,0,.27,0,.4.13.4.41.02,2.6.03,3.9.06,6.49,1.23,0,1.84-.01,3.07-.02,0-1.7,0-2.55-.01-4.25,0-.48.06-.92.18-1.27.31-.9.91-1.38,1.83-1.38.69,0,1.03.43,1.02,1.27,0,1.71,0,2.56-.02,4.27,0,.95.39,1.36,1.29,1.37,1.14,0,1.71.01,2.84.03.01-1.08.02-1.62.03-2.7-.27,0-.41,0-.68,0-.27,0-.39-.14-.39-.42.01-1.25.02-1.87.03-3.11.02-2.4-1.09-3.61-3.32-3.62h0ZM50.4,49.35h.04c.23.88.34,1.31.57,2.19.28.88.42,1.32.7,2.2-.95.02-1.42.03-2.37.06.24-.89.35-1.34.59-2.23.15-.56.31-1.3.47-2.21h0ZM73.43,49.43c-2.48-.05-3.73.68-3.75,2.19,0,.42-.01.64-.02,1.06,1.15.02,1.73.02,2.88.05,0-.17,0-.26,0-.43,0-.32.28-.46.82-.45.79.02,1.18.38,1.16,1.28v.11c-.05,0-.08,0-.13,0-.96-.02-1.91.07-3.21.44-1.28.37-2.19,1.31-2.21,2.63-.01.93.29,1.7.86,2.27s1.34.86,2.21.88c1.92.04,2.59-1.34,2.59-1.34h.04c0,.07,0,.1,0,.17-.01.52.39,1.02,1.19,1.04,1.07.02,1.6.04,2.66.07.03-1.08.05-1.62.08-2.7-.27,0-.41-.01-.68-.02-.27,0-.39-.14-.38-.42.03-1.12.05-1.68.08-2.79.08-2.61-1.33-3.96-4.21-4.03h0ZM39.65,49.8c-1.3.06-2.43.84-2.91,1.76h-.04c-.54-1.05-1.44-1.55-2.69-1.48-1.1.06-1.99.67-2.63,1.81h-.04c0-.09,0-.13,0-.22,0-.05,0-.08,0-.13-.04-.67-.52-1.05-1.37-1-1.12.07-1.68.11-2.8.19.07,1.08.11,1.62.18,2.7.27-.02.41-.03.68-.05.27-.02.4.11.42.39.17,2.59.25,3.88.42,6.47,1.23-.08,1.84-.12,3.07-.2-.09-1.58-.14-2.38-.23-3.96-.02-.35,0-.75.06-1.16.18-1.18.7-1.81,1.55-1.86.49-.03.74.37.79,1.17.12,2.27.19,3.41.31,5.68,1.23-.07,1.84-.1,3.07-.16-.08-1.58-.12-2.38-.19-3.96-.02-.39,0-.75.05-1.09.17-1.12.7-1.88,1.58-1.92.49-.02.74.37.77,1.18.08,1.73.11,2.59.19,4.32.04.95.45,1.34,1.36,1.31,1.14-.05,1.71-.07,2.84-.11-.04-1.08-.06-1.62-.1-2.7-.27,0-.41.02-.68.03-.27,0-.4-.12-.41-.4-.05-1.24-.07-1.87-.12-3.11-.1-2.51-1.33-3.55-3.16-3.47h0ZM84.51,50.01c-.04,1.08-.07,1.62-.11,2.7.14,0,.2,0,.34.02.18,0,.3.11.38.31,1.06,2.69,1.58,4.03,2.61,6.73-.05.11-.07.16-.12.27-.26.62-.74.92-1.41.89-.48-.02-.89-.25-1.23-.67-.48.89-.72,1.34-1.19,2.23.11.1.16.15.27.25.39.37,1.31.84,2.24.88,1.6.08,3.11-.74,3.95-2.69,1.27-2.98,1.91-4.48,3.22-7.46.08-.2.23-.29.45-.27.14,0,.2.01.34.02.07-1.08.1-1.62.16-2.7-.93-.06-1.4-.08-2.33-.14-.5-.03-.99.22-1.14.72-.5,1.53-.74,2.29-1.23,3.82-.11.35-.24.83-.38,1.47h-.04c-.1-.6-.16-.9-.26-1.51-.46-1.58-.7-2.37-1.17-3.94-.18-.53-.52-.81-1.05-.83-.91-.04-1.37-.06-2.28-.1h0ZM98.19,50.59c-.75.05-1.42.24-2,.58-.77.46-1.18,1.16-1.24,2.12-.19,3.09,4.39,3.7,4.34,4.48-.02.32-.26.45-.73.41-.41-.03-.86-.19-1.31-.47-.46-.28-.77-.52-.92-.68-.15-.17-.22-.25-.37-.41-.6.79-.9,1.18-1.5,1.97.06.08.09.12.15.2.4.47,1.71,1.68,3.79,1.82,1.08.08,2.01-.14,2.74-.64.75-.52,1.16-1.24,1.24-2.19.15-1.87-1.52-2.83-2.79-3.35-.88-.36-1.61-.71-1.58-1.06.02-.3.3-.43.86-.39.45.03.83.27.81.51-.01.19-.02.28-.03.46,1.08.08,1.62.12,2.7.2.04-.45.05-.68.09-1.13.13-1.71-1.91-2.33-3.45-2.44-.27-.02-.53-.02-.78,0h0ZM22.05,50.86c-1.46.12-2.6.69-3.4,1.72-.8,1.02-1.13,2.25-1.01,3.68.12,1.35.67,2.5,1.66,3.41.99.91,2.25,1.31,3.79,1.19.9-.07,1.85-.41,2.37-.7.27-.15.54-.34.79-.52.49-.38.57-.51.64-.59-.55-.83-.83-1.24-1.38-2.07-.12.11-.18.17-.3.28-.41.35-1.28.84-2.07.9-1.05.08-1.97-.46-2.28-1.58,2.32-.19,3.49-.28,5.81-.44,0-.39,0-.58,0-.97-.09-1.36-.57-2.45-1.38-3.25-.82-.8-1.9-1.17-3.24-1.07h0ZM103.72,51.18c-.09,1.08-.13,1.62-.21,2.7.27.02.41.03.68.05.27.02.39.16.36.44-.17,2.04-.25,3.07-.42,5.11-.08.95.28,1.39,1.19,1.46,1.13.1,1.7.15,2.83.25.1-1.08.15-1.62.24-2.69-.27-.02-.41-.03-.68-.06-.27-.02-.38-.17-.36-.45.18-2.04.27-3.07.45-5.11.08-.95-.28-1.39-1.2-1.47-1.16-.1-1.73-.15-2.89-.24h0ZM112.98,51.82c-.75.02-1.43.2-2.02.53-.79.43-1.21,1.12-1.3,2.09-.28,3.08,4.29,3.82,4.21,4.6-.03.31-.28.44-.74.4-.41-.04-.85-.21-1.3-.5-.45-.29-.76-.54-.9-.71-.14-.17-.21-.26-.36-.43-.62.77-.94,1.16-1.56,1.93.06.08.08.12.14.2.39.49,1.66,1.73,3.73,1.93,1.08.11,2.01-.08,2.76-.56.77-.5,1.2-1.21,1.3-2.15.21-1.86-1.44-2.87-2.7-3.43-.87-.38-1.59-.76-1.55-1.11.03-.3.31-.42.87-.36.45.04.82.29.8.53-.02.19-.03.28-.04.46,1.08.11,1.61.17,2.69.28.05-.45.07-.68.12-1.13.18-1.71-1.84-2.39-3.38-2.54-.27-.03-.53-.04-.78-.03h0ZM22.23,53.28c.63-.05,1.14.53,1.19,1.14-1.05.08-1.58.12-2.64.21.17-.84.64-1.29,1.45-1.35h0ZM74.24,55.19c.11,0,.17,0,.29,0,0,.06,0,.09,0,.15-.01.41-.18.8-.49,1.15-.31.35-.67.52-1.06.52-.57-.01-.87-.35-.86-.82.01-.69,1-1.03,2.13-1h0Z"/>
    <path id="path8" class="st2" d="M112.63,64.53c-.75-.07-1.45-.26-2.09-.5-1.04,7.09-2.01,14.19-2.82,21.33v.02c-.03.38-.28.99-.66,1.52-.38.54-.89,1-1.31,1.21h.02s-.02,0-.02,0c-14.93,7.9-29.57,16.29-44.18,24.73-.34.2-.94.35-1.54.35-.6,0-1.2-.15-1.54-.35-14.61-8.44-29.25-16.83-44.19-24.73h0c-.42-.22-.93-.68-1.3-1.21-.38-.53-.62-1.14-.66-1.52h0c-.79-6.97-1.73-13.9-2.74-20.82-.9.09-1.66.17-2.48.26,1.02,6.93,1.95,13.87,2.75,20.83h0s0-.01,0-.01c.11.98.53,1.89,1.1,2.7.58.81,1.31,1.52,2.18,1.98h0c14.89,7.87,29.5,16.25,44.1,24.68.85.48,1.82.68,2.78.68.96,0,1.93-.2,2.78-.68,14.61-8.43,29.22-16.81,44.1-24.69h0c.88-.46,1.61-1.17,2.19-1.98.57-.81.99-1.71,1.1-2.69.81-7.05,1.76-14.08,2.79-21.1-.12,0-.23,0-.35-.02Z"/>
    <path id="path10" class="st3" d="M8.04,51.43c.54-.06.81-.08,1.35-.14-.11-1.11-.17-1.67-.28-2.78-2.32.24-3.48.36-5.79.62.13,1.11.19,1.67.31,2.78.54-.06.81-.09,1.35-.15.34,3.08.51,4.62.85,7.69-.53.06-.8.09-1.33.15.13,1.11.19,1.67.31,2.78,2.26-.26,3.39-.38,5.65-.6-.11-1.11-.17-1.67-.28-2.78-.54.06-.8.08-1.34.14-.32-3.08-.48-4.62-.8-7.7M16.41,61.29c.34-.03.6-.07.83-.13-.1-1.11-.15-1.67-.25-2.78-.16.02-.25.03-.41.05-1.09.1-1.68-.26-1.75-1.08-.11-1.24-.17-1.86-.29-3.1.78-.07,1.16-.11,1.94-.18-.09-1-.13-1.51-.22-2.51-.78.07-1.17.1-1.95.18-.09-1.03-.14-1.55-.24-2.58-1.22.11-1.83.17-3.04.29.1,1.03.15,1.54.25,2.58-.51.05-.77.08-1.28.13.1,1,.15,1.5.25,2.51.47-.05.71-.07,1.19-.12.14,1.41.21,2.11.35,3.52.16,1.62,1.01,2.44,1.87,2.85.94.45,2,.43,2.75.36M20.79,54.63c.17-.84.64-1.28,1.45-1.35.63-.05,1.14.53,1.19,1.14-1.05.08-1.58.12-2.64.21M20.85,56.59c2.32-.19,3.49-.28,5.81-.44,0-.39,0-.58,0-.97-.09-1.36-.57-2.45-1.38-3.25-.82-.8-1.9-1.17-3.24-1.07-1.46.12-2.6.69-3.4,1.72-.8,1.02-1.13,2.25-1,3.68.12,1.35.67,2.51,1.66,3.41.99.91,2.25,1.31,3.79,1.19.9-.07,1.85-.42,2.37-.7.27-.15.54-.34.78-.52.49-.38.57-.51.64-.59-.55-.83-.83-1.24-1.38-2.07-.12.11-.18.17-.3.28-.41.35-1.28.84-2.07.9-1.05.08-1.97-.46-2.28-1.58M41.27,59.57c1.14-.05,1.71-.07,2.84-.11-.04-1.08-.06-1.62-.1-2.7-.27,0-.41.02-.68.03-.27,0-.4-.12-.41-.4-.05-1.24-.07-1.87-.12-3.11-.1-2.51-1.33-3.55-3.16-3.47-1.3.06-2.43.84-2.91,1.76h-.04c-.54-1.05-1.44-1.55-2.69-1.48-1.1.06-1.99.67-2.63,1.81h-.04c0-.09,0-.13,0-.22,0-.05,0-.08,0-.13-.04-.67-.52-1.05-1.37-1-1.12.07-1.68.11-2.8.18.07,1.08.11,1.62.18,2.7.27-.02.41-.03.68-.05.27-.02.41.11.42.38.17,2.59.25,3.88.42,6.47,1.23-.08,1.84-.12,3.07-.19-.09-1.58-.14-2.38-.23-3.96-.02-.35,0-.75.06-1.16.18-1.18.7-1.81,1.55-1.86.49-.03.74.37.78,1.17.12,2.27.19,3.41.31,5.68,1.23-.07,1.84-.1,3.07-.16-.08-1.58-.12-2.38-.19-3.97-.02-.39,0-.75.06-1.08.17-1.12.7-1.88,1.58-1.92.49-.02.74.38.77,1.18.08,1.73.11,2.59.19,4.32.04.95.45,1.34,1.36,1.31M51.71,53.74c-.95.02-1.42.03-2.37.06.24-.89.35-1.34.59-2.23.15-.56.31-1.3.47-2.21h.04c.23.87.34,1.31.57,2.19.28.88.42,1.32.69,2.2M54.54,59.19c.82-.01,1.22-.02,2.04-.03-.01-1.12-.02-1.68-.03-2.8-.14,0-.21,0-.34,0-.28,0-.36-.09-.49-.4-1.45-4.03-2.18-6.05-3.68-10.07-1.36.03-2.03.04-3.39.08-1.32,4.08-1.96,6.13-3.22,10.22-.12.32-.18.42-.47.42-.13,0-.2,0-.34.01.04,1.12.06,1.68.1,2.79.82-.03,1.23-.04,2.04-.06.87-.03,1.22-.3,1.46-1.12.2-.69.31-1.04.51-1.73,1.49-.04,2.23-.06,3.71-.09.24.68.35,1.02.58,1.71.28.81.64,1.07,1.51,1.06M68.2,59.17c.01-1.08.02-1.62.03-2.7-.27,0-.41,0-.68,0-.27,0-.39-.14-.39-.42.01-1.25.02-1.87.03-3.11.02-2.4-1.09-3.61-3.32-3.62-1.32,0-2.32.56-2.95,1.66h-.04c0-.09.01-.13.02-.22v-.13c0-.67-.46-1.08-1.31-1.08-1.12,0-1.67.01-2.79.02.01,1.08.02,1.62.03,2.7.27,0,.41,0,.68,0,.27,0,.4.13.4.41.02,2.6.03,3.89.06,6.49,1.23,0,1.84-.01,3.07-.02,0-1.7,0-2.55-.01-4.25,0-.48.06-.92.18-1.27.31-.9.92-1.38,1.83-1.38.69,0,1.03.43,1.02,1.27,0,1.71,0,2.56-.02,4.27,0,.95.39,1.36,1.29,1.37,1.14,0,1.71,0,2.84.02M74.52,55.19c0,.06,0,.09,0,.15-.01.41-.18.8-.49,1.15-.31.35-.67.53-1.06.52-.57-.01-.87-.35-.86-.82.01-.69,1-1.03,2.13-1,.11,0,.17,0,.29,0M78.53,59.39c.03-1.08.05-1.62.08-2.7-.27,0-.41-.01-.68-.02-.27,0-.39-.14-.38-.42.03-1.12.05-1.68.08-2.8.08-2.61-1.33-3.96-4.21-4.03-2.48-.05-3.72.68-3.75,2.19,0,.42-.01.64-.02,1.06,1.15.02,1.73.03,2.88.05,0-.17,0-.26.01-.43,0-.32.28-.46.82-.45.79.02,1.18.38,1.16,1.27v.11c-.05,0-.08,0-.13,0-.96-.02-1.91.07-3.21.44-1.28.37-2.19,1.31-2.21,2.63-.01.93.29,1.7.86,2.27.58.57,1.34.86,2.21.88,1.92.04,2.59-1.34,2.59-1.34h.04c0,.07,0,.1,0,.17-.01.52.39,1.02,1.19,1.04,1.07.02,1.6.04,2.67.07M84.01,59.59c.05-1.08.07-1.62.11-2.7-.27-.01-.41-.02-.68-.03-.27-.01-.39-.15-.38-.43.14-3.54.21-5.31.36-8.85.04-.95-.35-1.38-1.28-1.41-1.17-.04-1.75-.06-2.91-.1-.04,1.08-.06,1.62-.09,2.7.28,0,.41.01.69.02.27,0,.4.15.39.42-.12,3.54-.18,5.31-.3,8.85-.03.95.34,1.37,1.25,1.41,1.14.04,1.71.06,2.84.11M94.24,53.22c.07-1.08.1-1.62.16-2.7-.93-.06-1.4-.08-2.33-.14-.5-.03-.99.23-1.14.72-.5,1.53-.74,2.29-1.23,3.82-.11.35-.24.83-.38,1.47h-.04c-.1-.6-.16-.9-.26-1.51-.47-1.58-.7-2.37-1.17-3.94-.18-.53-.53-.81-1.05-.83-.91-.04-1.37-.06-2.28-.1-.04,1.08-.07,1.62-.11,2.7.14,0,.2,0,.34.01.18,0,.3.11.38.31,1.06,2.69,1.58,4.03,2.6,6.73-.05.11-.07.16-.12.27-.26.62-.74.92-1.41.89-.48-.02-.89-.25-1.23-.67-.48.89-.72,1.33-1.19,2.23.11.1.16.15.27.25.39.37,1.31.84,2.24.88,1.6.08,3.11-.74,3.95-2.69,1.27-2.98,1.91-4.48,3.22-7.46.08-.2.23-.28.44-.27.14,0,.21.01.34.02M102.33,54.17c.04-.45.05-.68.09-1.13.13-1.71-1.91-2.33-3.44-2.44-1.07-.08-2.01.12-2.78.58-.77.46-1.18,1.16-1.24,2.13-.19,3.09,4.39,3.7,4.34,4.48-.02.32-.26.45-.73.41-.41-.03-.86-.19-1.31-.47-.46-.28-.77-.52-.92-.68-.15-.17-.22-.25-.37-.42-.6.79-.9,1.19-1.5,1.98.06.08.09.12.15.19.4.47,1.71,1.68,3.79,1.82,1.08.08,2.01-.14,2.74-.64.75-.52,1.16-1.24,1.24-2.19.15-1.87-1.52-2.83-2.79-3.35-.88-.36-1.61-.71-1.58-1.07.02-.3.3-.43.86-.39.45.03.83.26.81.51-.01.19-.02.28-.03.47,1.08.08,1.62.12,2.69.2M107.76,50.39c.09-1.04.14-1.56.22-2.6-1.06-.09-1.58-.14-2.64-.22-.09,1.04-.13,1.56-.21,2.6,1.05.09,1.57.13,2.62.22M108.16,61.19c.1-1.08.14-1.62.24-2.69-.27-.02-.41-.03-.68-.06-.27-.02-.38-.17-.36-.44.18-2.04.27-3.06.45-5.11.08-.95-.28-1.39-1.2-1.47-1.16-.1-1.73-.15-2.89-.24-.09,1.08-.13,1.62-.21,2.7.27.02.41.03.68.05.27.02.39.16.36.44-.17,2.04-.25,3.06-.42,5.11-.08.95.28,1.39,1.19,1.47,1.13.1,1.7.15,2.83.25M113.75,51.85c-1.06-.11-2.01.06-2.79.5-.79.43-1.21,1.12-1.3,2.09-.28,3.08,4.29,3.82,4.21,4.6-.03.31-.28.44-.74.4-.41-.04-.85-.21-1.3-.5-.45-.29-.76-.54-.9-.71-.14-.17-.21-.26-.36-.43-.62.77-.94,1.16-1.56,1.93.06.08.08.12.14.2.39.49,1.66,1.72,3.73,1.93,1.08.11,2.01-.08,2.76-.56.77-.5,1.2-1.21,1.3-2.15.21-1.86-1.44-2.88-2.69-3.43-.87-.38-1.59-.76-1.56-1.11.03-.3.31-.42.87-.36.45.04.82.29.8.53-.02.19-.03.28-.04.46,1.08.11,1.61.17,2.69.28.05-.45.07-.68.12-1.13.18-1.71-1.85-2.39-3.38-2.54"/>
    <path id="path12" class="st2" d="M48.4,29.08c.29-.8.42-1.53.41-2.17-.01-.59-.19-1.06-.52-1.4-.33-.34-.85-.5-1.55-.48-1.05.02-1.99.32-2.82.88-.83.56-1.46,1.25-1.9,2.06-.44.81-.65,1.59-.64,2.34.01.54.16,1.01.44,1.42.28.41.62.75,1.01,1.03.4.28.93.6,1.59.97.65.37,1.17.69,1.56.96.39.27.72.59.99.98.26.39.4.84.42,1.35.01.59-.15,1.1-.48,1.53-.33.43-.77.76-1.31,1-.54.23-1.11.35-1.71.37-.95.02-1.68-.22-2.2-.72-.52-.5-.79-1.14-.81-1.91,0-.45.07-.9.24-1.35.17-.45.42-.87.76-1.25-.64.01-1.21.23-1.7.65-.49.42-.72,1.08-.7,1.99.02.74.22,1.37.59,1.88.38.51.88.89,1.5,1.13.62.24,1.29.35,2.01.34.82-.02,1.61-.2,2.37-.55.76-.35,1.38-.83,1.86-1.46.48-.63.71-1.37.69-2.21-.02-.65-.18-1.22-.49-1.69-.31-.47-.69-.86-1.12-1.17-.43-.3-1-.65-1.7-1.03-.58-.31-1.05-.58-1.38-.81-.34-.23-.62-.5-.86-.82-.23-.32-.35-.68-.36-1.09-.01-.55.17-1.17.53-1.84.37-.68.87-1.26,1.51-1.74.64-.48,1.33-.74,2.09-.75.4,0,.68.06.84.19.16.14.25.34.26.61,0,.24-.03.52-.12.84-.09.32-.22.73-.4,1.23-.17.47-.3.85-.38,1.17-.09.31-.13.59-.12.83.01.46.23.73.65.81.36-.6.68-1.3.97-2.11M63.43,29.85c.26-.23.38-.47.38-.71,0-.4-.23-.59-.65-.58-.32,0-.63.12-.94.33-.3.21-.45.45-.44.7,0,.21.08.36.23.47.15.11.34.16.57.15.31,0,.59-.13.85-.36M52.13,32.83c.27-.97.64-1.94,1.1-2.92.47-.98.91-1.79,1.34-2.43.43-.65.71-.97.85-.98.05,0,.08.05.08.15,0,.33-.15.91-.49,1.74-.33.83-.76,1.66-1.29,2.5-.53.84-1.06,1.49-1.6,1.94M75.87,39.56c-.3.79-.61,1.45-.91,1.97-.31.52-.59.9-.84,1.15-.25.24-.45.37-.59.37-.17,0-.3-.06-.39-.18-.09-.13-.14-.25-.14-.38-.01-.4.11-.76.35-1.09.24-.33.56-.62.94-.88.38-.26.91-.58,1.58-.95M80.71,35.17l-.26-.19c-.33.84-.76,1.54-1.31,2.1-.55.56-1.14.98-1.78,1.25.4-1.1.73-2.2.99-3.28.26-1.09.39-1.8.38-2.15-.15-.03-.29-.05-.4-.05-.28,0-.5.11-.66.32-.15.21-.25.44-.3.68-.06.37-.11.67-.17.89-.41.71-.84,1.3-1.29,1.79-.46.49-.86.73-1.2.74-.46.01-.7-.24-.71-.75-.01-.49.12-1.15.4-1.99.28-.84.54-1.44.79-1.82,0-.1-.12-.2-.35-.29-.23-.09-.4-.14-.51-.13-.18,0-.4.26-.66.77-.26.51-.48,1.1-.67,1.77-.06.2-.09.38-.12.56-.37.76-.76,1.41-1.17,1.94-.46.59-.9.89-1.33.9-.39,0-.58-.23-.59-.72,0-.21.02-.41.08-.62.06-.21.14-.45.25-.74.13-.34.23-.63.29-.89.06-.26.09-.53.09-.81-.01-.47-.14-.88-.39-1.22s-.61-.5-1.08-.48c-.67.02-1.34.36-2.01,1.03-.68.67-1.31,1.49-1.91,2.46.17-.54.3-1.06.41-1.54.1-.49.15-.82.15-1.02,0-.33-.19-.5-.53-.49-.17,0-.33.05-.5.14s-.29.18-.38.29c0,.53-.1,1.13-.28,1.81-.01.05-.03.11-.05.16-.9,1.84-1.82,2.79-2.78,2.81-.33,0-.58-.07-.73-.22-.15-.16-.23-.46-.24-.91-.01-.5.1-1.03.34-1.6s.56-1.21.96-1.92c.39-.69.59-1.12.58-1.31,0-.13-.05-.23-.13-.3-.09-.08-.19-.11-.3-.11-.41,0-.82.35-1.24,1.03-.41.68-.75,1.46-1.02,2.36-.03.1-.05.19-.08.28-.35.75-.78,1.43-1.3,2-.58.63-1.08.94-1.52.95-.18,0-.32-.05-.43-.17-.11-.12-.16-.3-.17-.54,0-.19.02-.39.08-.6.06-.21.15-.49.27-.83.15-.42.25-.75.31-1.01.06-.26.09-.53.08-.81-.01-.47-.14-.88-.39-1.21-.25-.33-.62-.5-1.11-.49-.79.02-1.5.5-2.13,1.43-.62.94-1.17,2.15-1.65,3.65-.03-.23-.05-.45-.05-.65-.01-.56.03-1.21.14-1.92.1-.72.27-1.35.48-1.89.71-.45,1.39-1.15,2.06-2.09.66-.94,1.2-1.92,1.6-2.93.4-1.01.6-1.82.59-2.42,0-.31-.07-.59-.18-.83-.12-.25-.28-.37-.48-.36-.54.01-1.25.81-2.14,2.4-.89,1.59-1.67,3.4-2.34,5.42-.68,2.02-1,3.62-.97,4.81.01.54.1,1.01.26,1.4s.35.59.58.58c.22,0,.41-.18.58-.52.17-.34.4-.88.69-1.64.38-1.03.75-1.82,1.09-2.39.34-.57.75-.86,1.22-.87.22,0,.4.06.53.21.14.15.21.38.22.7,0,.33-.08.85-.27,1.55-.18.63-.26,1.09-.26,1.38,0,.36.13.65.37.87.24.22.56.32.99.31.72-.02,1.4-.35,2.04-.99.35-.35.66-.75.93-1.2-.02.2-.04.38-.03.54.01.47.15.86.41,1.15.26.3.63.44,1.11.43.77-.02,1.5-.34,2.18-.96.25-.23.47-.5.68-.8-.04.12-.08.24-.12.36-.16.4-.23.64-.23.7.1.14.25.24.43.31.18.07.38.1.6.09.5-.9.96-1.67,1.36-2.31.4-.64.86-1.22,1.38-1.75.52-.53,1.02-.8,1.51-.81.51-.01.78.3.79.93,0,.21-.02.44-.07.7-.05.26-.11.5-.18.74-.06.22-.11.44-.17.67-.05.23-.08.42-.07.59,0,.37.13.67.37.89.24.22.57.32,1.01.31,1.07-.03,2-.81,2.79-2.32,0,.04-.01.08-.01.12.01.5.17.88.49,1.14.31.26.68.39,1.09.38.49-.01.96-.24,1.41-.69.45-.45.9-1.06,1.34-1.83-.3,1.37-.63,2.56-.99,3.55-.87.47-1.54.86-2.01,1.16-.47.3-.86.65-1.18,1.05-.32.4-.47.86-.46,1.37,0,.32.13.57.36.74.24.17.53.26.87.25.61-.01,1.22-.47,1.82-1.37.6-.9,1.17-2.04,1.69-3.44,1.93-.95,3.11-2.18,3.55-3.69"/>
    <g id="g36">
      <path id="path26" class="st4" d="M50.05,89.56c.09,2.27.12,3.4.15,5.66h5.5c-.01-2.26-.03-3.39-.06-5.66h-5.58Z"/>
      <path id="path28" class="st4" d="M42.83,89.56c.06.82.09,1.24.14,2.07,2.22,0,3.33,0,5.55,0-.03-.82-.05-1.24-.09-2.06h-5.6Z"/>
      <path id="path30" class="st4" d="M57.24,89.56c.03,3.05.04,4.56.04,7.59,1.1,0,1.92,0,2.74,0s1.65,0,2.74,0c0-3.03,0-4.54.04-7.59h-5.57Z"/>
      <path id="path32" class="st4" d="M64.43,89.56c-.03,1.82-.04,2.73-.06,4.55,1.56,0,2.56,0,3.8,0,.51,0,1.06,0,1.71,0,.03-1.82.06-2.73.14-4.55h-5.58Z"/>
      <path id="path34" class="st4" d="M71.62,89.56c-.06,1.32-.09,1.98-.13,3.3,2.21,0,3.31,0,5.53,0,.06-1.32.1-1.98.2-3.31h-5.6Z"/>
    </g>
    <rect id="rect38" class="st2" x="38.81" y="84.17" width="42.43" height="1"/>
    <g id="g42">
      <path id="path40" class="st2" d="M2.65,36.53c.54,3.27,1.07,6.53,1.6,9.8.9-.1,1.66-.18,2.48-.27-.54-3.31-1.08-6.62-1.62-9.94-.01-.07-.02-.14-.02-.22,0-.36.14-.86.41-1.31.27-.45.66-.85,1.05-1.07C23.47,23.84,40.43,14.28,57.82,5.53h0c.51-.26,1.36-.44,2.21-.43.85,0,1.7.17,2.21.43h0c17.39,8.76,34.35,18.31,51.28,28,.39.22.78.61,1.05,1.07.27.45.41.95.41,1.31,0,.08,0,.15-.02.22h0c-.71,4.34-1.42,8.68-2.12,13.03.11,0,.21-.01.32-.01.28,0,.57.01.86.04.36.04.81.1,1.29.22.69-4.29,1.39-8.58,2.1-12.87h0c.03-.21.05-.42.05-.62,0-.92-.29-1.8-.76-2.59-.47-.78-1.12-1.48-1.95-1.95-16.94-9.69-33.94-19.27-51.39-28.07h-.01s0,0,0,0c-1-.49-2.16-.69-3.31-.69-1.16,0-2.31.2-3.31.69h0C39.25,12.09,22.25,21.67,5.31,31.37c-.83.48-1.48,1.17-1.95,1.95-.47.78-.76,1.67-.76,2.59,0,.21.02.42.05.62Z"/>
    </g>
  </g>
  <g>
    <path class="st3" d="M41.85,69.98h-1.85c-.24,0-.37.14-.37.37v.73h-1.96v-1.9c0-.8.27-1.09,1.09-1.09h8.41c.82,0,1.09.29,1.09,1.09v1.9h-1.95v-.73c0-.24-.14-.37-.37-.37h-1.85v10.18h-2.23v-10.18Z"/>
    <path class="st3" d="M52.53,71.29c2.65,0,4.76,1.89,4.76,4.54s-2.11,4.54-4.76,4.54-4.74-1.87-4.74-4.54,2.11-4.54,4.74-4.54ZM52.53,78.53c1.41,0,2.58-1.09,2.58-2.7s-1.17-2.7-2.58-2.7-2.57,1.1-2.57,2.7,1.17,2.7,2.57,2.7Z"/>
    <path class="st3" d="M63.12,71.29c2.65,0,4.76,1.89,4.76,4.54s-2.11,4.54-4.76,4.54-4.74-1.87-4.74-4.54,2.11-4.54,4.74-4.54ZM63.12,78.53c1.41,0,2.58-1.09,2.58-2.7s-1.17-2.7-2.58-2.7-2.57,1.1-2.57,2.7,1.17,2.7,2.57,2.7Z"/>
    <path class="st3" d="M69.65,70.3c0-.25-.14-.37-.37-.37h-.68v-1.83h2.06c.8,0,1.16.36,1.16,1.16v8.72c0,.24.14.37.37.37h.66v1.82h-2.04c-.82,0-1.16-.34-1.16-1.16v-8.7Z"/>
    <path class="st3" d="M74.68,77.41s1.1,1.28,2.58,1.28c.66,0,1.17-.27,1.17-.85,0-1.22-4.57-1.21-4.57-4.01,0-1.73,1.56-2.53,3.37-2.53,1.17,0,3.04.39,3.04,1.8v.9h-1.9v-.43c0-.41-.61-.61-1.09-.61-.76,0-1.29.27-1.29.78,0,1.36,4.61,1.09,4.61,3.98,0,1.63-1.44,2.65-3.33,2.65-2.38,0-3.6-1.55-3.6-1.55l1.02-1.41Z"/>
  </g>
</svg>